HIERARCHY
ROOT p1
{
	OFFSET 0.000000 0.000000 0.000000
	CHANNELS 3 Xposition Yposition Zposition
	End Site
	{
		OFFSET 0.000000 0.000000 0.000000
	}
}
ROOT p2
{
	OFFSET 0.000000 0.000000 0.000000
	CHANNELS 3 Xposition Yposition Zposition
	End Site
	{
		OFFSET 0.000000 0.000000 0.000000
	}
}
ROOT p3
{
	OFFSET 0.000000 0.000000 0.000000
	CHANNELS 3 Xposition Yposition Zposition
	End Site
	{
		OFFSET 0.000000 0.000000 0.000000
	}
}
ROOT p4
{
	OFFSET 0.000000 0.000000 0.000000
	CHANNELS 3 Xposition Yposition Zposition
	End Site
	{
		OFFSET 0.000000 0.000000 0.000000
	}
}
ROOT p5
{
	OFFSET 0.000000 0.000000 0.000000
	CHANNELS 3 Xposition Yposition Zposition
	End Site
	{
		OFFSET 0.000000 0.000000 0.000000
	}
}
ROOT p6
{
	OFFSET 0.000000 0.000000 0.000000
	CHANNELS 3 Xposition Yposition Zposition
	End Site
	{
		OFFSET 0.000000 0.000000 0.000000
	}
}
ROOT p7
{
	OFFSET 0.000000 0.000000 0.000000
	CHANNELS 3 Xposition Yposition Zposition
	End Site
	{
		OFFSET 0.000000 0.000000 0.000000
	}
}
ROOT p8
{
	OFFSET 0.000000 0.000000 0.000000
	CHANNELS 3 Xposition Yposition Zposition
	End Site
	{
		OFFSET 0.000000 0.000000 0.000000
	}
}
ROOT p9
{
	OFFSET 0.000000 0.000000 0.000000
	CHANNELS 3 Xposition Yposition Zposition
	End Site
	{
		OFFSET 0.000000 0.000000 0.000000
	}
}
ROOT p10
{
	OFFSET 0.000000 0.000000 0.000000
	CHANNELS 3 Xposition Yposition Zposition
	End Site
	{
		OFFSET 0.000000 0.000000 0.000000
	}
}
ROOT p11
{
	OFFSET 0.000000 0.000000 0.000000
	CHANNELS 3 Xposition Yposition Zposition
	End Site
	{
		OFFSET 0.000000 0.000000 0.000000
	}
}
ROOT p12
{
	OFFSET 0.000000 0.000000 0.000000
	CHANNELS 3 Xposition Yposition Zposition
	End Site
	{
		OFFSET 0.000000 0.000000 0.000000
	}
}
ROOT p13
{
	OFFSET 0.000000 0.000000 0.000000
	CHANNELS 3 Xposition Yposition Zposition
	End Site
	{
		OFFSET 0.000000 0.000000 0.000000
	}
}
ROOT p14
{
	OFFSET 0.000000 0.000000 0.000000
	CHANNELS 3 Xposition Yposition Zposition
	End Site
	{
		OFFSET 0.000000 0.000000 0.000000
	}
}
ROOT p15
{
	OFFSET 0.000000 0.000000 0.000000
	CHANNELS 3 Xposition Yposition Zposition
	End Site
	{
		OFFSET 0.000000 0.000000 0.000000
	}
}
ROOT p16
{
	OFFSET 0.000000 0.000000 0.000000
	CHANNELS 3 Xposition Yposition Zposition
	End Site
	{
		OFFSET 0.000000 0.000000 0.000000
	}
}
ROOT p17
{
	OFFSET 0.000000 0.000000 0.000000
	CHANNELS 3 Xposition Yposition Zposition
	End Site
	{
		OFFSET 0.000000 0.000000 0.000000
	}
}
ROOT p18
{
	OFFSET 0.000000 0.000000 0.000000
	CHANNELS 3 Xposition Yposition Zposition
	End Site
	{
		OFFSET 0.000000 0.000000 0.000000
	}
}
ROOT p19
{
	OFFSET 0.000000 0.000000 0.000000
	CHANNELS 3 Xposition Yposition Zposition
	End Site
	{
		OFFSET 0.000000 0.000000 0.000000
	}
}
ROOT p20
{
	OFFSET 0.000000 0.000000 0.000000
	CHANNELS 3 Xposition Yposition Zposition
	End Site
	{
		OFFSET 0.000000 0.000000 0.000000
	}
}
ROOT p21
{
	OFFSET 0.000000 0.000000 0.000000
	CHANNELS 3 Xposition Yposition Zposition
	End Site
	{
		OFFSET 0.000000 0.000000 0.000000
	}
}
ROOT p22
{
	OFFSET 0.000000 0.000000 0.000000
	CHANNELS 3 Xposition Yposition Zposition
	End Site
	{
		OFFSET 0.000000 0.000000 0.000000
	}
}
ROOT p23
{
	OFFSET 0.000000 0.000000 0.000000
	CHANNELS 3 Xposition Yposition Zposition
	End Site
	{
		OFFSET 0.000000 0.000000 0.000000
	}
}
ROOT p24
{
	OFFSET 0.000000 0.000000 0.000000
	CHANNELS 3 Xposition Yposition Zposition
	End Site
	{
		OFFSET 0.000000 0.000000 0.000000
	}
}
ROOT p25
{
	OFFSET 0.000000 0.000000 0.000000
	CHANNELS 3 Xposition Yposition Zposition
	End Site
	{
		OFFSET 0.000000 0.000000 0.000000
	}
}
ROOT p26
{
	OFFSET 0.000000 0.000000 0.000000
	CHANNELS 3 Xposition Yposition Zposition
	End Site
	{
		OFFSET 0.000000 0.000000 0.000000
	}
}
ROOT p27
{
	OFFSET 0.000000 0.000000 0.000000
	CHANNELS 3 Xposition Yposition Zposition
	End Site
	{
		OFFSET 0.000000 0.000000 0.000000
	}
}
ROOT p28
{
	OFFSET 0.000000 0.000000 0.000000
	CHANNELS 3 Xposition Yposition Zposition
	End Site
	{
		OFFSET 0.000000 0.000000 0.000000
	}
}
ROOT p29
{
	OFFSET 0.000000 0.000000 0.000000
	CHANNELS 3 Xposition Yposition Zposition
	End Site
	{
		OFFSET 0.000000 0.000000 0.000000
	}
}
ROOT p30
{
	OFFSET 0.000000 0.000000 0.000000
	CHANNELS 3 Xposition Yposition Zposition
	End Site
	{
		OFFSET 0.000000 0.000000 0.000000
	}
}
ROOT p31
{
	OFFSET 0.000000 0.000000 0.000000
	CHANNELS 3 Xposition Yposition Zposition
	End Site
	{
		OFFSET 0.000000 0.000000 0.000000
	}
}
ROOT p32
{
	OFFSET 0.000000 0.000000 0.000000
	CHANNELS 3 Xposition Yposition Zposition
	End Site
	{
		OFFSET 0.000000 0.000000 0.000000
	}
}
ROOT p33
{
	OFFSET 0.000000 0.000000 0.000000
	CHANNELS 3 Xposition Yposition Zposition
	End Site
	{
		OFFSET 0.000000 0.000000 0.000000
	}
}
ROOT p34
{
	OFFSET 0.000000 0.000000 0.000000
	CHANNELS 3 Xposition Yposition Zposition
	End Site
	{
		OFFSET 0.000000 0.000000 0.000000
	}
}
ROOT p35
{
	OFFSET 0.000000 0.000000 0.000000
	CHANNELS 3 Xposition Yposition Zposition
	End Site
	{
		OFFSET 0.000000 0.000000 0.000000
	}
}
ROOT p36
{
	OFFSET 0.000000 0.000000 0.000000
	CHANNELS 3 Xposition Yposition Zposition
	End Site
	{
		OFFSET 0.000000 0.000000 0.000000
	}
}
ROOT p37
{
	OFFSET 0.000000 0.000000 0.000000
	CHANNELS 3 Xposition Yposition Zposition
	End Site
	{
		OFFSET 0.000000 0.000000 0.000000
	}
}
ROOT p38
{
	OFFSET 0.000000 0.000000 0.000000
	CHANNELS 3 Xposition Yposition Zposition
	End Site
	{
		OFFSET 0.000000 0.000000 0.000000
	}
}
ROOT p39
{
	OFFSET 0.000000 0.000000 0.000000
	CHANNELS 3 Xposition Yposition Zposition
	End Site
	{
		OFFSET 0.000000 0.000000 0.000000
	}
}
ROOT p40
{
	OFFSET 0.000000 0.000000 0.000000
	CHANNELS 3 Xposition Yposition Zposition
	End Site
	{
		OFFSET 0.000000 0.000000 0.000000
	}
}
ROOT p41
{
	OFFSET 0.000000 0.000000 0.000000
	CHANNELS 3 Xposition Yposition Zposition
	End Site
	{
		OFFSET 0.000000 0.000000 0.000000
	}
}
ROOT p42
{
	OFFSET 0.000000 0.000000 0.000000
	CHANNELS 3 Xposition Yposition Zposition
	End Site
	{
		OFFSET 0.000000 0.000000 0.000000
	}
}
ROOT p43
{
	OFFSET 0.000000 0.000000 0.000000
	CHANNELS 3 Xposition Yposition Zposition
	End Site
	{
		OFFSET 0.000000 0.000000 0.000000
	}
}
ROOT p44
{
	OFFSET 0.000000 0.000000 0.000000
	CHANNELS 3 Xposition Yposition Zposition
	End Site
	{
		OFFSET 0.000000 0.000000 0.000000
	}
}
ROOT p45
{
	OFFSET 0.000000 0.000000 0.000000
	CHANNELS 3 Xposition Yposition Zposition
	End Site
	{
		OFFSET 0.000000 0.000000 0.000000
	}
}
ROOT p46
{
	OFFSET 0.000000 0.000000 0.000000
	CHANNELS 3 Xposition Yposition Zposition
	End Site
	{
		OFFSET 0.000000 0.000000 0.000000
	}
}
ROOT p47
{
	OFFSET 0.000000 0.000000 0.000000
	CHANNELS 3 Xposition Yposition Zposition
	End Site
	{
		OFFSET 0.000000 0.000000 0.000000
	}
}
ROOT p48
{
	OFFSET 0.000000 0.000000 0.000000
	CHANNELS 3 Xposition Yposition Zposition
	End Site
	{
		OFFSET 0.000000 0.000000 0.000000
	}
}
ROOT p49
{
	OFFSET 0.000000 0.000000 0.000000
	CHANNELS 3 Xposition Yposition Zposition
	End Site
	{
		OFFSET 0.000000 0.000000 0.000000
	}
}
ROOT p50
{
	OFFSET 0.000000 0.000000 0.000000
	CHANNELS 3 Xposition Yposition Zposition
	End Site
	{
		OFFSET 0.000000 0.000000 0.000000
	}
}
ROOT p51
{
	OFFSET 0.000000 0.000000 0.000000
	CHANNELS 3 Xposition Yposition Zposition
	End Site
	{
		OFFSET 0.000000 0.000000 0.000000
	}
}
ROOT p52
{
	OFFSET 0.000000 0.000000 0.000000
	CHANNELS 3 Xposition Yposition Zposition
	End Site
	{
		OFFSET 0.000000 0.000000 0.000000
	}
}
ROOT p53
{
	OFFSET 0.000000 0.000000 0.000000
	CHANNELS 3 Xposition Yposition Zposition
	End Site
	{
		OFFSET 0.000000 0.000000 0.000000
	}
}
ROOT p54
{
	OFFSET 0.000000 0.000000 0.000000
	CHANNELS 3 Xposition Yposition Zposition
	End Site
	{
		OFFSET 0.000000 0.000000 0.000000
	}
}
ROOT p55
{
	OFFSET 0.000000 0.000000 0.000000
	CHANNELS 3 Xposition Yposition Zposition
	End Site
	{
		OFFSET 0.000000 0.000000 0.000000
	}
}
ROOT p56
{
	OFFSET 0.000000 0.000000 0.000000
	CHANNELS 3 Xposition Yposition Zposition
	End Site
	{
		OFFSET 0.000000 0.000000 0.000000
	}
}
ROOT p57
{
	OFFSET 0.000000 0.000000 0.000000
	CHANNELS 3 Xposition Yposition Zposition
	End Site
	{
		OFFSET 0.000000 0.000000 0.000000
	}
}
ROOT p58
{
	OFFSET 0.000000 0.000000 0.000000
	CHANNELS 3 Xposition Yposition Zposition
	End Site
	{
		OFFSET 0.000000 0.000000 0.000000
	}
}
ROOT p59
{
	OFFSET 0.000000 0.000000 0.000000
	CHANNELS 3 Xposition Yposition Zposition
	End Site
	{
		OFFSET 0.000000 0.000000 0.000000
	}
}
ROOT p60
{
	OFFSET 0.000000 0.000000 0.000000
	CHANNELS 3 Xposition Yposition Zposition
	End Site
	{
		OFFSET 0.000000 0.000000 0.000000
	}
}
ROOT p61
{
	OFFSET 0.000000 0.000000 0.000000
	CHANNELS 3 Xposition Yposition Zposition
	End Site
	{
		OFFSET 0.000000 0.000000 0.000000
	}
}
ROOT p62
{
	OFFSET 0.000000 0.000000 0.000000
	CHANNELS 3 Xposition Yposition Zposition
	End Site
	{
		OFFSET 0.000000 0.000000 0.000000
	}
}
ROOT p63
{
	OFFSET 0.000000 0.000000 0.000000
	CHANNELS 3 Xposition Yposition Zposition
	End Site
	{
		OFFSET 0.000000 0.000000 0.000000
	}
}
ROOT p64
{
	OFFSET 0.000000 0.000000 0.000000
	CHANNELS 3 Xposition Yposition Zposition
	End Site
	{
		OFFSET 0.000000 0.000000 0.000000
	}
}
ROOT p65
{
	OFFSET 0.000000 0.000000 0.000000
	CHANNELS 3 Xposition Yposition Zposition
	End Site
	{
		OFFSET 0.000000 0.000000 0.000000
	}
}
ROOT p66
{
	OFFSET 0.000000 0.000000 0.000000
	CHANNELS 3 Xposition Yposition Zposition
	End Site
	{
		OFFSET 0.000000 0.000000 0.000000
	}
}
ROOT p67
{
	OFFSET 0.000000 0.000000 0.000000
	CHANNELS 3 Xposition Yposition Zposition
	End Site
	{
		OFFSET 0.000000 0.000000 0.000000
	}
}
ROOT p68
{
	OFFSET 0.000000 0.000000 0.000000
	CHANNELS 3 Xposition Yposition Zposition
	End Site
	{
		OFFSET 0.000000 0.000000 0.000000
	}
}
ROOT p69
{
	OFFSET 0.000000 0.000000 0.000000
	CHANNELS 3 Xposition Yposition Zposition
	End Site
	{
		OFFSET 0.000000 0.000000 0.000000
	}
}
ROOT p70
{
	OFFSET 0.000000 0.000000 0.000000
	CHANNELS 3 Xposition Yposition Zposition
	End Site
	{
		OFFSET 0.000000 0.000000 0.000000
	}
}
MOTION
Frames: 6
Frame Time: 0.010000000
1.255325 1.048729 -1.346882 1.285889 1.097907 -1.329842 1.225143 1.097909 -1.331017 1.325230 1.170392 -1.398015 1.176877 1.170548 -1.402433 1.401062 1.044581 -1.548262 1.087324 1.149360 -1.591361 1.387775 0.764995 -1.562261 1.017712 1.073490 -1.850086 1.265770 0.770728 -1.957055 1.118669 0.768374 -1.978606 1.285110 0.404607 -1.739209 1.104078 0.342238 -2.064777 1.196440 0.066200 -1.929939 1.209243 0.370240 -2.439718 1.227249 -0.008581 -1.758543 1.273201 -0.006048 -1.815837 1.181121 0.027309 -1.974092 1.239511 0.217361 -2.541261 1.193279 0.262145 -2.559222 1.226667 0.413118 -2.471641 0.970919 0.778136 -2.061687 0.971216 0.795092 -2.045356 0.975163 0.821905 -2.025839 0.976409 0.851378 -2.017126 0.949642 0.775505 -2.105180 0.938854 0.779846 -2.090975 0.929766 0.788934 -2.071589 0.935833 0.811275 -2.040978 0.959506 0.799599 -2.120960 0.946569 0.801896 -2.108696 0.932552 0.807166 -2.090615 0.927690 0.827165 -2.053378 0.961124 0.818184 -2.124865 0.947434 0.821868 -2.113867 0.932946 0.828010 -2.095138 0.931982 0.845561 -2.061698 0.964266 0.840830 -2.118635 0.952917 0.847333 -2.110268 0.943141 0.853232 -2.096497 0.940442 0.863843 -2.069660 0.964426 0.883597 -2.010262 1.124097 0.650195 -1.378866 1.145406 0.654538 -1.389240 1.173015 0.659160 -1.407203 1.196189 0.650646 -1.420972 1.100544 0.608998 -1.349891 1.120391 0.619120 -1.345111 1.144980 0.631014 -1.344295 1.175904 0.646336 -1.364105 1.103416 0.585534 -1.352056 1.122012 0.593961 -1.346261 1.144985 0.605041 -1.342927 1.181300 0.624375 -1.358857 1.108629 0.567519 -1.368834 1.127383 0.573870 -1.360738 1.152232 0.585575 -1.354959 1.184754 0.606469 -1.367156 1.129035 0.558145 -1.375229 1.145846 0.562399 -1.370424 1.163522 0.571586 -1.368613 1.186395 0.589572 -1.379578 1.226807 0.635974 -1.422243 1.403132 0.732186 -1.579085 1.014214 1.098338 -1.882240 1.361686 0.782575 -1.543698 1.022241 1.044666 -1.834450 1.384079 1.063547 -1.508646 1.088671 1.157611 -1.556712 1.245443 1.115650 -1.531364
1.253398 1.051208 -1.305627 1.285966 1.101746 -1.292273 1.221813 1.100903 -1.291357 1.325560 1.172005 -1.364326 1.168958 1.170107 -1.363836 1.395650 1.039832 -1.505493 1.078918 1.151127 -1.555049 1.373584 0.762892 -1.513978 1.008943 1.102535 -1.816048 1.262476 0.767311 -1.918055 1.113741 0.765018 -1.939126 1.283532 0.395191 -1.718010 1.101370 0.335542 -2.002462 1.195215 0.067053 -1.928717 1.207682 0.378287 -2.376747 1.227805 -0.011793 -1.761269 1.274280 -0.005953 -1.818374 1.180454 0.029818 -1.974574 1.236854 0.226278 -2.481339 1.191497 0.271561 -2.499716 1.224888 0.421927 -2.408190 0.914051 0.862003 -2.098423 0.918681 0.873617 -2.076081 0.929575 0.893119 -2.047133 0.937790 0.919125 -2.027934 0.888342 0.873491 -2.136789 0.879181 0.876705 -2.122978 0.873016 0.882732 -2.102797 0.885571 0.895058 -2.066760 0.905800 0.897721 -2.145772 0.892244 0.900795 -2.133428 0.879041 0.905321 -2.114843 0.879992 0.915974 -2.073586 0.910970 0.919345 -2.141020 0.897203 0.923221 -2.130007 0.883687 0.927534 -2.111217 0.888182 0.935506 -2.074690 0.919136 0.939402 -2.128610 0.908501 0.946383 -2.118438 0.899932 0.950596 -2.103702 0.900779 0.953905 -2.075190 0.932192 0.951465 -2.010963 1.102160 0.691707 -1.323720 1.123748 0.693475 -1.334326 1.151488 0.694225 -1.352519 1.173545 0.682380 -1.365833 1.079497 0.654796 -1.292364 1.098820 0.663657 -1.288425 1.122871 0.673484 -1.288442 1.153853 0.684517 -1.308934 1.080730 0.631052 -1.291949 1.098617 0.638278 -1.287255 1.120993 0.647496 -1.285041 1.157368 0.662227 -1.302221 1.082470 0.610202 -1.307444 1.101110 0.615839 -1.300200 1.125994 0.626031 -1.295571 1.159081 0.643106 -1.309356 1.100796 0.598166 -1.313010 1.117554 0.601692 -1.308987 1.135502 0.609689 -1.308200 1.159017 0.624831 -1.320708 1.202584 0.664639 -1.365849 1.386902 0.727829 -1.528967 1.010605 1.131798 -1.844147 1.348041 0.783901 -1.495948 1.008671 1.072253 -1.805331 1.377005 1.059470 -1.466482 1.078518 1.159981 -1.521031 1.238345 1.112226 -1.491474
1.254847 1.055333 -1.262675 1.286278 1.106480 -1.252325 1.222821 1.105569 -1.250186 1.323333 1.173235 -1.329240 1.169006 1.171024 -1.325823 1.393909 1.037664 -1.462730 1.082464 1.148414 -1.514504 1.356664 0.763635 -1.464352 1.004619 1.106990 -1.778269 1.260415 0.762605 -1.884050 1.111229 0.759304 -1.901123 1.287879 0.387195 -1.697255 1.109393 0.328394 -1.940271 1.200092 0.073153 -1.925510 1.200426 0.382538 -2.317071 1.229705 -0.013351 -1.763729 1.278361 -0.005976 -1.818907 1.185436 0.038669 -1.972920 1.225446 0.228577 -2.419056 1.178804 0.273850 -2.437112 1.215171 0.426099 -2.350203 0.894198 0.871896 -2.073097 0.899398 0.883202 -2.049958 0.910826 0.902036 -2.020431 0.920599 0.927306 -1.999947 0.870889 0.883372 -2.110075 0.863809 0.887119 -2.092961 0.859406 0.893584 -2.069702 0.871706 0.905493 -2.033607 0.886377 0.907182 -2.119070 0.876391 0.910541 -2.103176 0.866422 0.915383 -2.081003 0.868479 0.926070 -2.038011 0.893600 0.927031 -2.112799 0.882868 0.931523 -2.098677 0.872269 0.936505 -2.076570 0.877238 0.944762 -2.038845 0.902839 0.946054 -2.099481 0.894787 0.953491 -2.086608 0.888192 0.958285 -2.069518 0.889735 0.962170 -2.039860 0.918921 0.959521 -1.978763 1.073024 0.740602 -1.278567 1.094708 0.738431 -1.288783 1.122626 0.734167 -1.306390 1.144417 0.718212 -1.318370 1.047168 0.708561 -1.244401 1.067940 0.715092 -1.241049 1.093277 0.721560 -1.241549 1.124997 0.726772 -1.262109 1.046605 0.684949 -1.241401 1.066322 0.689777 -1.237468 1.090444 0.695781 -1.236081 1.127995 0.704150 -1.253707 1.047865 0.661695 -1.254852 1.068225 0.665379 -1.248432 1.094971 0.672532 -1.244837 1.129176 0.684011 -1.259438 1.066892 0.646296 -1.260523 1.084963 0.647902 -1.256785 1.104065 0.653573 -1.256411 1.128547 0.664681 -1.269511 1.173256 0.696267 -1.316382 1.367929 0.726558 -1.477062 1.006811 1.135797 -1.805036 1.331948 0.788252 -1.447829 1.003037 1.076936 -1.769110 1.374099 1.057744 -1.424698 1.081533 1.157693 -1.480324 1.237421 1.108691 -1.452018
1.258757 1.062299 -1.219359 1.288287 1.113852 -1.211680 1.225316 1.112496 -1.208966 1.321992 1.176903 -1.292486 1.168433 1.173441 -1.287478 1.389165 1.034420 -1.417564 1.086491 1.152166 -1.471138 1.343470 0.762101 -1.414097 1.013616 1.134523 -1.735639 1.258883 0.763741 -1.850033 1.113215 0.758100 -1.861979 1.289753 0.380908 -1.675495 1.111712 0.322336 -1.870918 1.202755 0.075903 -1.920844 1.185435 0.382728 -2.253205 1.229996 -0.012892 -1.760105 1.277631 -0.004036 -1.816730 1.188189 0.042452 -1.969859 1.211188 0.227879 -2.355569 1.161705 0.271922 -2.372088 1.196883 0.426563 -2.287606 0.889097 0.909025 -2.033267 0.895547 0.920863 -2.010272 0.908863 0.939585 -1.980758 0.920637 0.964417 -1.960177 0.866871 0.924754 -2.071368 0.859377 0.929664 -2.054796 0.855217 0.937145 -2.032132 0.869330 0.948177 -1.996113 0.884787 0.947912 -2.080840 0.874490 0.952577 -2.064795 0.864511 0.958727 -2.042717 0.867677 0.969335 -2.000085 0.894510 0.967269 -2.072917 0.883279 0.972967 -2.059033 0.872307 0.979179 -2.037429 0.877901 0.987125 -2.000146 0.905444 0.986010 -2.059115 0.897258 0.994150 -2.046281 0.890356 0.999542 -2.029542 0.891803 1.003182 -2.000288 0.921612 0.997714 -1.939088 1.059716 0.798394 -1.233855 1.082071 0.791466 -1.242674 1.110687 0.780956 -1.258364 1.131934 0.760399 -1.268360 1.030926 0.769019 -1.200493 1.052138 0.772827 -1.196079 1.078355 0.775589 -1.195169 1.111854 0.774762 -1.213576 1.030767 0.746640 -1.198198 1.050016 0.748427 -1.192502 1.074139 0.750574 -1.189201 1.113452 0.752091 -1.204281 1.031083 0.721797 -1.209736 1.050785 0.722687 -1.201836 1.077603 0.725926 -1.196430 1.113505 0.731401 -1.209190 1.049004 0.703552 -1.213624 1.066554 0.702296 -1.208442 1.085956 0.704868 -1.206748 1.111898 0.711562 -1.218543 1.159367 0.733823 -1.264290 1.352242 0.723029 -1.425318 1.019151 1.164547 -1.760269 1.320489 0.791139 -1.398180 1.008981 1.103654 -1.728241 1.368971 1.055316 -1.380434 1.085267 1.161322 -1.437214 1.236585 1.107727 -1.410600
1.259409 1.068961 -1.174062 1.287540 1.121403 -1.170406 1.224259 1.118952 -1.166178 1.317480 1.179943 -1.256154 1.162912 1.173685 -1.247489 1.386883 1.032309 -1.372177 1.077841 1.158079 -1.429591 1.324730 0.761453 -1.360056 1.002670 1.183253 -1.692662 1.254704 0.766043 -1.813023 1.104496 0.759341 -1.821693 1.292419 0.371896 -1.662920 1.106631 0.319559 -1.803747 1.201764 0.079251 -1.918520 1.170673 0.379981 -2.185838 1.228223 -0.017003 -1.761326 1.276626 -0.007033 -1.817952 1.186558 0.048418 -1.968203 1.183224 0.217488 -2.280433 1.131713 0.261471 -2.297912 1.182133 0.422703 -2.221860 0.857985 0.997918 -1.988470 0.866676 1.006959 -1.965611 0.882848 1.021381 -1.936465 0.897652 1.044141 -1.916932 0.837339 1.023500 -2.027184 0.830753 1.028865 -2.010559 0.828232 1.035781 -1.987866 0.844972 1.041224 -1.951929 0.858223 1.042732 -2.037952 0.847750 1.050140 -2.021988 0.838618 1.058291 -1.999948 0.845023 1.065440 -1.957249 0.870085 1.063041 -2.030831 0.858570 1.070866 -2.017318 0.848123 1.078604 -1.996019 0.856543 1.082842 -1.958611 0.885129 1.081046 -2.017895 0.876166 1.090814 -2.005799 0.869113 1.096702 -1.989443 0.871544 1.097458 -1.960037 0.902843 1.079271 -1.897347 1.065338 0.850407 -1.179507 1.084944 0.840317 -1.188028 1.109927 0.825108 -1.203325 1.126175 0.801160 -1.211620 1.033691 0.830065 -1.141537 1.053016 0.832021 -1.137556 1.076665 0.831898 -1.137120 1.107516 0.824802 -1.156078 1.031940 0.808563 -1.137345 1.048526 0.808770 -1.131513 1.069554 0.808452 -1.128226 1.104843 0.803456 -1.143890 1.027922 0.782148 -1.146591 1.044923 0.781898 -1.138288 1.068772 0.782792 -1.132921 1.101835 0.782366 -1.146745 1.041597 0.761792 -1.148818 1.056304 0.759163 -1.143056 1.073473 0.759630 -1.141376 1.097758 0.761722 -1.154334 1.145911 0.772249 -1.204575 1.328769 0.721191 -1.368967 1.010717 1.216098 -1.716584 1.305858 0.794413 -1.345063 0.995571 1.151216 -1.685751 1.364079 1.053913 -1.335602 1.077185 1.167261 -1.395589 1.230631 1.106451 -1.368180
1.257920 1.072273 -1.136420 1.286186 1.124648 -1.135814 1.220187 1.122391 -1.128161 1.313787 1.181730 -1.222852 1.152967 1.175998 -1.206186 1.380184 1.032211 -1.326185 1.078579 1.167534 -1.387953 1.317346 0.763002 -1.307741 1.023069 1.226960 -1.651176 1.255696 0.767189 -1.775395 1.102590 0.759713 -1.780903 1.302128 0.367307 -1.647294 1.118650 0.325195 -1.729982 1.202331 0.085347 -1.912815 1.163725 0.374682 -2.115114 1.233829 -0.018411 -1.763694 1.283501 -0.005875 -1.818301 1.185330 0.057236 -1.962812 1.172773 0.209128 -2.206003 1.120661 0.252248 -2.223836 1.173065 0.415911 -2.152512 0.885029 1.089139 -1.963508 0.891285 1.094803 -1.939730 0.904446 1.104195 -1.908375 0.919874 1.123353 -1.885844 0.880065 1.121805 -2.000748 0.871303 1.125041 -1.985381 0.865497 1.128756 -1.963555 0.875738 1.128134 -1.926435 0.901732 1.139730 -2.006750 0.891166 1.146034 -1.992729 0.880970 1.152020 -1.972519 0.881604 1.152927 -1.930116 0.918133 1.159488 -1.996901 0.906354 1.166196 -1.985184 0.894343 1.171593 -1.965883 0.896418 1.169795 -1.928900 0.935605 1.173667 -1.982089 0.926482 1.182671 -1.971429 0.917648 1.186946 -1.956325 0.913945 1.183691 -1.927468 0.928522 1.155236 -1.864232 1.049932 0.891146 -1.148893 1.070212 0.878748 -1.155507 1.095937 0.860327 -1.168124 1.111842 0.834475 -1.173239 1.015951 0.878090 -1.109004 1.036685 0.878951 -1.105191 1.061743 0.877026 -1.104446 1.093744 0.865473 -1.121597 1.010172 0.858541 -1.100680 1.029027 0.857680 -1.095523 1.052327 0.855628 -1.092751 1.089620 0.845889 -1.107414 1.006294 0.830961 -1.107657 1.024803 0.830144 -1.099842 1.050345 0.829582 -1.094896 1.085236 0.824894 -1.108078 1.017666 0.808386 -1.108189 1.034349 0.805496 -1.102628 1.053381 0.804977 -1.101016 1.079758 0.803892 -1.113508 1.130873 0.805102 -1.162487 1.319209 0.722523 -1.314058 1.035506 1.261320 -1.673007 1.299289 0.798743 -1.295215 1.012218 1.195132 -1.646298 1.356707 1.054442 -1.290416 1.078171 1.176713 -1.353727 1.222947 1.108202 -1.326733
